{"title":"R I P D 2013 WEBRiP XViD UNiQUE","uid":8841042,"size":1440338273,"categoryP":"video","categoryS":"movies","magnet":"?xt=urn:btih:041ce02a985a4eddeaf3f0ffb0e5066b63f40e1d&amp;dn=R+I+P+D+2013+WEBRiP+XViD+UNiQUE&amp;tr=udp%3A%2F%2Ftracker.openbittorrent.com%3A80&amp;tr=udp%3A%2F%2Fopen.demonii.com%3A1337&amp;tr=udp%3A%2F%2Ftracker.coppersurfer.tk%3A6969&amp;tr=udp%3A%2F%2Fexodus.desync.com%3A6969","seeders":15,"leechers":3,"uploader":"srkfan","files":3,"time":1377244880,"description":" &lt;a href=&quot;http://img22.imageshack.us/img22/2806/uy54.jpg&quot; rel=&quot;nofollow&quot; target=&quot;_NEW&quot;&gt;http://img22.imageshack.us/img22/2806/uy54.jpg&lt;/a&gt;\n\nFormat                                   : AVI\nFormat/Info                              : Audio Video Interleave\nFile size                                : 1.33 GiB\nDuration                                 : 1h 35mn\nOverall bit rate                         : 1 992 Kbps\nWriting application                      : VirtualDubMod 1.5.10.2 (build 2540/release)\nWriting library                          : VirtualDubMod build 2540/release\n\nVideo\nID                                       : 0\nFormat                                   : MPEG-4 Visual\nFormat profile                           : Advanced Simple@L5\nFormat settings, BVOP                    : 2\nFormat settings, QPel                    : No\nFormat settings, GMC                     : No warppoints\nFormat settings, Matrix                  : Default (H.263)\nMuxing mode                              : Packed bitstream\nCodec ID                                 : XVID\nCodec ID/Hint                            : XviD\nDuration                                 : 1h 35mn\nBit rate                                 : 1 788 Kbps\nWidth                                    : 720 pixels\nHeight                                   : 304 pixels\nDisplay aspect ratio                     : 2.35:1\nFrame rate                               : 29.970 fps\nColor space                              : YUV\nChroma subsampling                       : 4:2:0\nBit depth                                : 8 bits\nScan type                                : Progressive\nCompression mode                         : Lossy\nBits/(Pixel*Frame)                       : 0.273\nStream size                              : 1.20 GiB (90%)\nWriting library                          : XviD 64\n\nAudio\nID                                       : 1\nFormat                                   : AC-3\nFormat/Info                              : Audio Coding 3\nMode extension                           : CM (complete main)\nFormat settings, Endianness              : Big\nCodec ID                                 : 2000\nDuration                                 : 1h 35mn\nBit rate mode                            : Constant\nBit rate                                 : 192 Kbps\nChannel(s)                               : 2 channels\nChannel positions                        : Front: L R\nSampling rate                            : 44.1 KHz\nBit depth                                : 16 bits\nCompression mode                         : Lossy\nStream size                              : 132 MiB (10%)\nAlignment                                : Split accross interleaves\nInterleave, duration                     : 33 ms (1.00 video frame)\nInterleave, preload duration             : 500 ms\n &lt;a href=&quot;\nhttp://www.imdb.com/title/tt0790736/&quot; rel=&quot;nofollow&quot; target=&quot;_NEW&quot;&gt;\nhttp://www.imdb.com/title/tt0790736/&lt;/a&gt;\n\n\nA recently slain cop joins a team of undead police officers working for the Rest in Peace Department and tries to find the man who murdered him. \n\nSource Used  SmY    - Thanks\n &lt;a href=&quot;\nhttp://img23.imageshack.us/img23/7530/ln1u.png&quot; rel=&quot;nofollow&quot; target=&quot;_NEW&quot;&gt;\nhttp://img23.imageshack.us/img23/7530/ln1u.png&lt;/a&gt; &lt;a href=&quot;\nhttp://img844.imageshack.us/img844/5596/wr87.png&quot; rel=&quot;nofollow&quot; target=&quot;_NEW&quot;&gt;\nhttp://img844.imageshack.us/img844/5596/wr87.png&lt;/a&gt; &lt;a href=&quot;\nhttp://img138.imageshack.us/img138/7273/x7fz.png&quot; rel=&quot;nofollow&quot; target=&quot;_NEW&quot;&gt;\nhttp://img138.imageshack.us/img138/7273/x7fz.png&lt;/a&gt;\n","torrent":{"xt":"urn:btih:041ce02a985a4eddeaf3f0ffb0e5066b63f40e1d","amp;dn":"R+I+P+D+2013+WEBRiP+XViD+UNiQUE","amp;tr":["udp%3A%2F%2Ftracker.openbittorrent.com%3A80","udp%3A%2F%2Fopen.demonii.com%3A1337","udp%3A%2F%2Ftracker.coppersurfer.tk%3A6969","udp%3A%2F%2Fexodus.desync.com%3A6969"],"infoHash":"041ce02a985a4eddeaf3f0ffb0e5066b63f40e1d","infoHashBuffer":{"type":"Buffer","data":[4,28,224,42,152,90,78,221,234,243,240,255,176,229,6,107,99,244,14,29]},"announce":[],"urlList":[]}}